<svg xmlns="http://www.w3.org/2000/svg" xmlns:xlink="http://www.w3.org/1999/xlink" width="3024" zoomAndPan="magnify" viewBox="0 0 2268 850.499975" height="1134" preserveAspectRatio="xMidYMid meet" version="1.0"><defs><g/></defs><g fill="#cdab63" fill-opacity="1"><g transform="translate(260.618963, 412.301585)"><g><path d="M 12.28125 0 L 12.28125 -5.578125 L 24 -10.046875 C 35.894531 -14.878906 41.84375 -24.363281 41.84375 -38.5 L 41.84375 -329.78125 C 41.84375 -344.664062 35.894531 -354.15625 24 -358.25 L 12.28125 -362.703125 L 12.28125 -368.296875 L 159.59375 -368.296875 C 199.019531 -368.296875 232.960938 -360.945312 261.421875 -346.25 C 289.890625 -331.550781 311.84375 -310.53125 327.28125 -283.1875 C 342.71875 -255.84375 350.4375 -223.015625 350.4375 -184.703125 C 350.4375 -145.640625 342.066406 -112.34375 325.328125 -84.8125 C 308.585938 -57.289062 285.242188 -36.273438 255.296875 -21.765625 C 225.347656 -7.253906 190.097656 0 149.546875 0 Z M 125.546875 -11.15625 L 149.546875 -11.15625 C 176.328125 -11.15625 197.898438 -16.457031 214.265625 -27.0625 C 230.640625 -37.664062 242.640625 -55.519531 250.265625 -80.625 C 257.890625 -105.738281 261.703125 -140.242188 261.703125 -184.140625 C 261.703125 -228.035156 257.890625 -262.539062 250.265625 -287.65625 C 242.640625 -312.769531 230.828125 -330.625 214.828125 -341.21875 C 198.835938 -351.820312 177.820312 -357.125 151.78125 -357.125 L 125.546875 -357.125 Z M 125.546875 -11.15625 "/></g></g></g><g fill="#cdab63" fill-opacity="1"><g transform="translate(608.820128, 412.301585)"><g><path d="M 12.28125 0 L 12.28125 -5.578125 L 23.4375 -10.046875 C 30.875 -12.648438 35.800781 -16.179688 38.21875 -20.640625 C 40.632812 -25.109375 41.84375 -31.0625 41.84375 -38.5 L 41.84375 -329.78125 C 41.84375 -337.226562 40.726562 -343.179688 38.5 -347.640625 C 36.269531 -352.109375 31.25 -355.644531 23.4375 -358.25 L 12.28125 -362.703125 L 12.28125 -368.296875 L 155.6875 -368.296875 L 155.6875 -362.703125 L 144.53125 -358.25 C 137.082031 -355.644531 132.148438 -352.109375 129.734375 -347.640625 C 127.316406 -343.179688 126.109375 -337.226562 126.109375 -329.78125 L 126.109375 -38.5 C 126.109375 -31.0625 127.316406 -25.203125 129.734375 -20.921875 C 132.148438 -16.648438 137.082031 -13.023438 144.53125 -10.046875 L 155.6875 -5.578125 L 155.6875 0 Z M 12.28125 0 "/></g></g></g><g fill="#cdab63" fill-opacity="1"><g transform="translate(776.782539, 412.301585)"><g><path d="M 132.25 10.046875 C 111.789062 10.046875 90.957031 7.535156 69.75 2.515625 C 48.539062 -2.503906 30.867188 -9.109375 16.734375 -17.296875 L 19.53125 -93.1875 L 25.109375 -93.1875 L 42.40625 -56.921875 C 47.613281 -46.503906 53.191406 -37.296875 59.140625 -29.296875 C 65.097656 -21.296875 73.285156 -15.066406 83.703125 -10.609375 C 91.140625 -6.878906 98.300781 -4.363281 105.1875 -3.0625 C 112.070312 -1.757812 119.789062 -1.109375 128.34375 -1.109375 C 151.03125 -1.109375 168.976562 -7.242188 182.1875 -19.515625 C 195.394531 -31.796875 202 -47.613281 202 -66.96875 C 202 -85.1875 197.535156 -99.410156 188.609375 -109.640625 C 179.679688 -119.878906 165.359375 -129.832031 145.640625 -139.5 L 122.765625 -149.546875 C 90.773438 -163.679688 65.753906 -179.957031 47.703125 -198.375 C 29.660156 -216.789062 20.640625 -241.25 20.640625 -271.75 C 20.640625 -293.695312 26.3125 -312.671875 37.65625 -328.671875 C 49.007812 -344.671875 64.820312 -356.945312 85.09375 -365.5 C 105.375 -374.050781 129.09375 -378.328125 156.25 -378.328125 C 175.957031 -378.328125 194.644531 -375.722656 212.3125 -370.515625 C 229.988281 -365.304688 245.335938 -358.238281 258.359375 -349.3125 L 255.015625 -282.359375 L 249.4375 -282.359375 L 226.546875 -324.203125 C 220.222656 -337.222656 213.898438 -346.429688 207.578125 -351.828125 C 201.253906 -357.222656 194 -361.035156 185.8125 -363.265625 C 180.976562 -364.753906 176.515625 -365.773438 172.421875 -366.328125 C 168.328125 -366.890625 163.117188 -367.171875 156.796875 -367.171875 C 137.828125 -367.171875 121.832031 -361.679688 108.8125 -350.703125 C 95.789062 -339.734375 89.28125 -324.945312 89.28125 -306.34375 C 89.28125 -287.375 94.300781 -272.21875 104.34375 -260.875 C 114.394531 -249.53125 129.09375 -239.390625 148.4375 -230.453125 L 174.09375 -219.296875 C 209.8125 -203.671875 235.484375 -187.023438 251.109375 -169.359375 C 266.734375 -151.691406 274.546875 -128.90625 274.546875 -101 C 274.546875 -68.257812 262.175781 -41.566406 237.4375 -20.921875 C 212.695312 -0.273438 177.632812 10.046875 132.25 10.046875 Z M 132.25 10.046875 "/></g></g></g><g fill="#cdab63" fill-opacity="1"><g transform="translate(1063.602147, 412.301585)"><g><path d="M 132.25 10.046875 C 111.789062 10.046875 90.957031 7.535156 69.75 2.515625 C 48.539062 -2.503906 30.867188 -9.109375 16.734375 -17.296875 L 19.53125 -93.1875 L 25.109375 -93.1875 L 42.40625 -56.921875 C 47.613281 -46.503906 53.191406 -37.296875 59.140625 -29.296875 C 65.097656 -21.296875 73.285156 -15.066406 83.703125 -10.609375 C 91.140625 -6.878906 98.300781 -4.363281 105.1875 -3.0625 C 112.070312 -1.757812 119.789062 -1.109375 128.34375 -1.109375 C 151.03125 -1.109375 168.976562 -7.242188 182.1875 -19.515625 C 195.394531 -31.796875 202 -47.613281 202 -66.96875 C 202 -85.1875 197.535156 -99.410156 188.609375 -109.640625 C 179.679688 -119.878906 165.359375 -129.832031 145.640625 -139.5 L 122.765625 -149.546875 C 90.773438 -163.679688 65.753906 -179.957031 47.703125 -198.375 C 29.660156 -216.789062 20.640625 -241.25 20.640625 -271.75 C 20.640625 -293.695312 26.3125 -312.671875 37.65625 -328.671875 C 49.007812 -344.671875 64.820312 -356.945312 85.09375 -365.5 C 105.375 -374.050781 129.09375 -378.328125 156.25 -378.328125 C 175.957031 -378.328125 194.644531 -375.722656 212.3125 -370.515625 C 229.988281 -365.304688 245.335938 -358.238281 258.359375 -349.3125 L 255.015625 -282.359375 L 249.4375 -282.359375 L 226.546875 -324.203125 C 220.222656 -337.222656 213.898438 -346.429688 207.578125 -351.828125 C 201.253906 -357.222656 194 -361.035156 185.8125 -363.265625 C 180.976562 -364.753906 176.515625 -365.773438 172.421875 -366.328125 C 168.328125 -366.890625 163.117188 -367.171875 156.796875 -367.171875 C 137.828125 -367.171875 121.832031 -361.679688 108.8125 -350.703125 C 95.789062 -339.734375 89.28125 -324.945312 89.28125 -306.34375 C 89.28125 -287.375 94.300781 -272.21875 104.34375 -260.875 C 114.394531 -249.53125 129.09375 -239.390625 148.4375 -230.453125 L 174.09375 -219.296875 C 209.8125 -203.671875 235.484375 -187.023438 251.109375 -169.359375 C 266.734375 -151.691406 274.546875 -128.90625 274.546875 -101 C 274.546875 -68.257812 262.175781 -41.566406 237.4375 -20.921875 C 212.695312 -0.273438 177.632812 10.046875 132.25 10.046875 Z M 132.25 10.046875 "/></g></g></g><g fill="#cdab63" fill-opacity="1"><g transform="translate(1340.9355, 412.301585)"><g><path d="M 189.171875 10.046875 C 160.898438 10.046875 135.878906 5.023438 114.109375 -5.015625 C 92.347656 -15.066406 75.421875 -30.972656 63.328125 -52.734375 C 51.242188 -74.492188 45.203125 -103.234375 45.203125 -138.953125 L 45.203125 -331.46875 C 45.203125 -345.601562 37.945312 -354.898438 23.4375 -359.359375 L 11.15625 -362.703125 L 11.15625 -368.296875 L 165.734375 -368.296875 L 165.734375 -362.703125 L 149.546875 -358.25 C 135.785156 -354.894531 128.90625 -345.59375 128.90625 -330.34375 L 128.90625 -124.4375 C 128.90625 -89.84375 136.15625 -64.265625 150.65625 -47.703125 C 165.164062 -31.148438 186 -22.875 213.15625 -22.875 C 241.4375 -22.875 263.851562 -31.613281 280.40625 -49.09375 C 296.957031 -66.582031 305.234375 -91.328125 305.234375 -123.328125 L 305.234375 -328.109375 C 305.234375 -335.554688 304.023438 -342.160156 301.609375 -347.921875 C 299.191406 -353.691406 294.257812 -357.503906 286.8125 -359.359375 L 272.875 -362.703125 L 272.875 -368.296875 L 350.984375 -368.296875 L 350.984375 -362.703125 L 335.921875 -358.796875 C 328.859375 -357.316406 324.207031 -353.785156 321.96875 -348.203125 C 319.738281 -342.617188 318.625 -336.109375 318.625 -328.671875 L 318.625 -124.4375 C 318.625 -97.28125 313.226562 -73.5625 302.4375 -53.28125 C 291.65625 -33.007812 276.59375 -17.382812 257.25 -6.40625 C 237.90625 4.5625 215.210938 10.046875 189.171875 10.046875 Z M 189.171875 10.046875 "/></g></g></g><g fill="#cdab63" fill-opacity="1"><g transform="translate(1693.600883, 412.301585)"><g><path d="M 12.28125 0 L 12.28125 -5.578125 L 24 -9.484375 C 31.4375 -12.085938 36.269531 -15.53125 38.5 -19.8125 C 40.726562 -24.09375 41.84375 -30.132812 41.84375 -37.9375 L 41.84375 -329.78125 C 41.84375 -337.226562 40.820312 -343.085938 38.78125 -347.359375 C 36.738281 -351.640625 32.179688 -355.082031 25.109375 -357.6875 L 12.28125 -362.703125 L 12.28125 -368.296875 L 171.875 -368.296875 C 215.769531 -368.296875 249.4375 -360.015625 272.875 -343.453125 C 296.3125 -326.898438 308.03125 -303.929688 308.03125 -274.546875 C 308.03125 -258.171875 301.890625 -241.800781 289.609375 -225.4375 C 277.335938 -209.070312 257.992188 -196.425781 231.578125 -187.5 L 309.140625 -33.484375 C 312.484375 -27.160156 316.296875 -22.046875 320.578125 -18.140625 C 324.859375 -14.234375 330.53125 -10.789062 337.59375 -7.8125 L 344.859375 -5.015625 L 344.859375 0 L 244.96875 0 L 162.375 -175.78125 L 124.4375 -175.78125 L 124.4375 -37.9375 C 124.4375 -30.875 125.550781 -25.109375 127.78125 -20.640625 C 130.019531 -16.179688 134.671875 -12.835938 141.734375 -10.609375 L 155.125 -5.578125 L 155.125 0 Z M 124.4375 -186.9375 L 151.21875 -186.9375 C 178.007812 -186.9375 197.351562 -194.097656 209.25 -208.421875 C 221.15625 -222.742188 227.109375 -244.039062 227.109375 -272.3125 C 227.109375 -300.957031 221.523438 -322.253906 210.359375 -336.203125 C 199.203125 -350.148438 180.421875 -357.125 154.015625 -357.125 L 124.4375 -357.125 Z M 124.4375 -186.9375 "/></g></g></g><g fill="#cdab63" fill-opacity="1"><g transform="translate(401.380183, 779.022406)"><g><path d="M 157.703125 -206.390625 C 156.929688 -199.585938 156.398438 -192.976562 156.109375 -186.5625 C 155.816406 -180.15625 155.671875 -175.300781 155.671875 -172 C 155.671875 -168.5 155.765625 -165.144531 155.953125 -161.9375 C 156.148438 -158.726562 156.347656 -156.054688 156.546875 -153.921875 L 149.84375 -153.921875 C 148.675781 -165.390625 147.019531 -174.472656 144.875 -181.171875 C 142.738281 -187.878906 139.09375 -192.640625 133.9375 -195.453125 C 128.789062 -198.273438 121.070312 -199.6875 110.78125 -199.6875 L 86.578125 -199.6875 C 79.972656 -199.6875 74.96875 -199.148438 71.5625 -198.078125 C 68.164062 -197.015625 65.882812 -194.78125 64.71875 -191.375 C 63.550781 -187.976562 62.96875 -182.6875 62.96875 -175.5 L 62.96875 -30.90625 C 62.96875 -23.90625 63.550781 -18.65625 64.71875 -15.15625 C 65.882812 -11.65625 68.164062 -9.367188 71.5625 -8.296875 C 74.96875 -7.234375 79.972656 -6.703125 86.578125 -6.703125 L 107.859375 -6.703125 C 120.097656 -6.703125 129.375 -8.351562 135.6875 -11.65625 C 142.007812 -14.957031 146.578125 -20.347656 149.390625 -27.828125 C 152.210938 -35.316406 154.304688 -45.472656 155.671875 -58.296875 L 162.375 -58.296875 C 161.789062 -53.054688 161.5 -46.0625 161.5 -37.3125 C 161.5 -33.625 161.644531 -28.328125 161.9375 -21.421875 C 162.226562 -14.523438 162.765625 -7.382812 163.546875 0 C 153.628906 -0.382812 142.453125 -0.625 130.015625 -0.71875 C 117.578125 -0.820312 106.5 -0.875 96.78125 -0.875 C 92.507812 -0.875 87.019531 -0.875 80.3125 -0.875 C 73.601562 -0.875 66.363281 -0.820312 58.59375 -0.71875 C 50.820312 -0.625 42.953125 -0.53125 34.984375 -0.4375 C 27.015625 -0.34375 19.4375 -0.195312 12.25 0 L 12.25 -5.828125 C 18.851562 -6.210938 23.851562 -6.988281 27.25 -8.15625 C 30.65625 -9.320312 32.941406 -11.65625 34.109375 -15.15625 C 35.273438 -18.65625 35.859375 -23.90625 35.859375 -30.90625 L 35.859375 -175.5 C 35.859375 -182.6875 35.273438 -187.976562 34.109375 -191.375 C 32.941406 -194.78125 30.65625 -197.113281 27.25 -198.375 C 23.851562 -199.632812 18.851562 -200.363281 12.25 -200.5625 L 12.25 -206.390625 C 19.4375 -206.191406 27.015625 -206.046875 34.984375 -205.953125 C 42.953125 -205.859375 50.820312 -205.757812 58.59375 -205.65625 C 66.363281 -205.5625 73.601562 -205.515625 80.3125 -205.515625 C 87.019531 -205.515625 92.507812 -205.515625 96.78125 -205.515625 C 105.71875 -205.515625 115.867188 -205.5625 127.234375 -205.65625 C 138.609375 -205.757812 148.765625 -206.003906 157.703125 -206.390625 Z M 107.5625 -106.6875 C 107.5625 -106.6875 107.5625 -105.710938 107.5625 -103.765625 C 107.5625 -101.828125 107.5625 -100.859375 107.5625 -100.859375 L 54.21875 -100.859375 C 54.21875 -100.859375 54.21875 -101.828125 54.21875 -103.765625 C 54.21875 -105.710938 54.21875 -106.6875 54.21875 -106.6875 Z M 116.015625 -145.171875 C 115.242188 -134.097656 114.90625 -125.644531 115 -119.8125 C 115.101562 -113.976562 115.15625 -108.632812 115.15625 -103.78125 C 115.15625 -98.914062 115.25 -93.566406 115.4375 -87.734375 C 115.632812 -81.910156 116.117188 -73.460938 116.890625 -62.390625 L 110.1875 -62.390625 C 109.414062 -68.609375 108.492188 -74.679688 107.421875 -80.609375 C 106.347656 -86.535156 104.015625 -91.390625 100.421875 -95.171875 C 96.828125 -98.960938 90.753906 -100.859375 82.203125 -100.859375 L 82.203125 -106.6875 C 88.617188 -106.6875 93.523438 -108 96.921875 -110.625 C 100.328125 -113.25 102.804688 -116.601562 104.359375 -120.6875 C 105.910156 -124.769531 106.976562 -128.992188 107.5625 -133.359375 C 108.144531 -137.734375 108.726562 -141.671875 109.3125 -145.171875 Z M 116.015625 -145.171875 "/></g></g></g><g fill="#cdab63" fill-opacity="1"><g transform="translate(612.729966, 779.022406)"><g><path d="M 185.703125 -206.390625 L 185.703125 -200.5625 C 182.003906 -199.78125 178.066406 -197.539062 173.890625 -193.84375 C 169.710938 -190.15625 165.972656 -183.941406 162.671875 -175.203125 L 94.15625 1.453125 C 93.769531 1.453125 93.378906 1.453125 92.984375 1.453125 C 92.597656 1.453125 92.210938 1.453125 91.828125 1.453125 C 91.441406 1.453125 91.050781 1.453125 90.65625 1.453125 C 90.269531 1.453125 89.882812 1.453125 89.5 1.453125 L 18.359375 -181.90625 C 15.453125 -189.289062 12.148438 -194.195312 8.453125 -196.625 C 4.765625 -199.050781 1.363281 -200.363281 -1.75 -200.5625 L -1.75 -206.390625 C 2.132812 -206.191406 6.941406 -205.992188 12.671875 -205.796875 C 18.410156 -205.609375 24 -205.515625 29.4375 -205.515625 C 37.019531 -205.515625 44.113281 -205.609375 50.71875 -205.796875 C 57.332031 -205.992188 62.675781 -206.191406 66.75 -206.390625 L 66.75 -200.5625 C 60.144531 -200.363281 55.140625 -199.582031 51.734375 -198.21875 C 48.335938 -196.863281 46.492188 -194.484375 46.203125 -191.078125 C 45.910156 -187.679688 47.03125 -182.679688 49.5625 -176.078125 L 103.78125 -32.359375 L 99.109375 -27.40625 L 149.84375 -159.171875 C 153.914062 -169.660156 155.851562 -177.867188 155.65625 -183.796875 C 155.46875 -189.722656 153.234375 -193.945312 148.953125 -196.46875 C 144.679688 -199 138.46875 -200.363281 130.3125 -200.5625 L 130.3125 -206.390625 C 135.945312 -206.191406 141.675781 -205.992188 147.5 -205.796875 C 153.332031 -205.609375 158.773438 -205.515625 163.828125 -205.515625 C 168.878906 -205.515625 173.054688 -205.609375 176.359375 -205.796875 C 179.671875 -205.992188 182.785156 -206.191406 185.703125 -206.390625 Z M 185.703125 -206.390625 "/></g></g></g><g fill="#cdab63" fill-opacity="1"><g transform="translate(830.201569, 779.022406)"><g><path d="M 157.703125 -206.390625 C 156.929688 -199.585938 156.398438 -192.976562 156.109375 -186.5625 C 155.816406 -180.15625 155.671875 -175.300781 155.671875 -172 C 155.671875 -168.5 155.765625 -165.144531 155.953125 -161.9375 C 156.148438 -158.726562 156.347656 -156.054688 156.546875 -153.921875 L 149.84375 -153.921875 C 148.675781 -165.390625 147.019531 -174.472656 144.875 -181.171875 C 142.738281 -187.878906 139.09375 -192.640625 133.9375 -195.453125 C 128.789062 -198.273438 121.070312 -199.6875 110.78125 -199.6875 L 86.578125 -199.6875 C 79.972656 -199.6875 74.96875 -199.148438 71.5625 -198.078125 C 68.164062 -197.015625 65.882812 -194.78125 64.71875 -191.375 C 63.550781 -187.976562 62.96875 -182.6875 62.96875 -175.5 L 62.96875 -30.90625 C 62.96875 -23.90625 63.550781 -18.65625 64.71875 -15.15625 C 65.882812 -11.65625 68.164062 -9.367188 71.5625 -8.296875 C 74.96875 -7.234375 79.972656 -6.703125 86.578125 -6.703125 L 107.859375 -6.703125 C 120.097656 -6.703125 129.375 -8.351562 135.6875 -11.65625 C 142.007812 -14.957031 146.578125 -20.347656 149.390625 -27.828125 C 152.210938 -35.316406 154.304688 -45.472656 155.671875 -58.296875 L 162.375 -58.296875 C 161.789062 -53.054688 161.5 -46.0625 161.5 -37.3125 C 161.5 -33.625 161.644531 -28.328125 161.9375 -21.421875 C 162.226562 -14.523438 162.765625 -7.382812 163.546875 0 C 153.628906 -0.382812 142.453125 -0.625 130.015625 -0.71875 C 117.578125 -0.820312 106.5 -0.875 96.78125 -0.875 C 92.507812 -0.875 87.019531 -0.875 80.3125 -0.875 C 73.601562 -0.875 66.363281 -0.820312 58.59375 -0.71875 C 50.820312 -0.625 42.953125 -0.53125 34.984375 -0.4375 C 27.015625 -0.34375 19.4375 -0.195312 12.25 0 L 12.25 -5.828125 C 18.851562 -6.210938 23.851562 -6.988281 27.25 -8.15625 C 30.65625 -9.320312 32.941406 -11.65625 34.109375 -15.15625 C 35.273438 -18.65625 35.859375 -23.90625 35.859375 -30.90625 L 35.859375 -175.5 C 35.859375 -182.6875 35.273438 -187.976562 34.109375 -191.375 C 32.941406 -194.78125 30.65625 -197.113281 27.25 -198.375 C 23.851562 -199.632812 18.851562 -200.363281 12.25 -200.5625 L 12.25 -206.390625 C 19.4375 -206.191406 27.015625 -206.046875 34.984375 -205.953125 C 42.953125 -205.859375 50.820312 -205.757812 58.59375 -205.65625 C 66.363281 -205.5625 73.601562 -205.515625 80.3125 -205.515625 C 87.019531 -205.515625 92.507812 -205.515625 96.78125 -205.515625 C 105.71875 -205.515625 115.867188 -205.5625 127.234375 -205.65625 C 138.609375 -205.757812 148.765625 -206.003906 157.703125 -206.390625 Z M 107.5625 -106.6875 C 107.5625 -106.6875 107.5625 -105.710938 107.5625 -103.765625 C 107.5625 -101.828125 107.5625 -100.859375 107.5625 -100.859375 L 54.21875 -100.859375 C 54.21875 -100.859375 54.21875 -101.828125 54.21875 -103.765625 C 54.21875 -105.710938 54.21875 -106.6875 54.21875 -106.6875 Z M 116.015625 -145.171875 C 115.242188 -134.097656 114.90625 -125.644531 115 -119.8125 C 115.101562 -113.976562 115.15625 -108.632812 115.15625 -103.78125 C 115.15625 -98.914062 115.25 -93.566406 115.4375 -87.734375 C 115.632812 -81.910156 116.117188 -73.460938 116.890625 -62.390625 L 110.1875 -62.390625 C 109.414062 -68.609375 108.492188 -74.679688 107.421875 -80.609375 C 106.347656 -86.535156 104.015625 -91.390625 100.421875 -95.171875 C 96.828125 -98.960938 90.753906 -100.859375 82.203125 -100.859375 L 82.203125 -106.6875 C 88.617188 -106.6875 93.523438 -108 96.921875 -110.625 C 100.328125 -113.25 102.804688 -116.601562 104.359375 -120.6875 C 105.910156 -124.769531 106.976562 -128.992188 107.5625 -133.359375 C 108.144531 -137.734375 108.726562 -141.671875 109.3125 -145.171875 Z M 116.015625 -145.171875 "/></g></g></g><g fill="#cdab63" fill-opacity="1"><g transform="translate(1041.551366, 779.022406)"><g><path d="M 195.3125 -206.390625 L 195.3125 -200.5625 C 188.707031 -200.363281 183.703125 -199.390625 180.296875 -197.640625 C 176.898438 -195.898438 174.617188 -193.082031 173.453125 -189.1875 C 172.285156 -185.300781 171.703125 -179.765625 171.703125 -172.578125 L 171.703125 1.453125 C 170.535156 1.453125 169.414062 1.453125 168.34375 1.453125 C 167.28125 1.453125 166.164062 1.453125 165 1.453125 L 42.5625 -187.734375 L 42.5625 -33.8125 C 42.5625 -26.820312 43.191406 -21.332031 44.453125 -17.34375 C 45.710938 -13.363281 48.238281 -10.546875 52.03125 -8.890625 C 55.820312 -7.234375 61.507812 -6.210938 69.09375 -5.828125 L 69.09375 0 C 65.59375 -0.382812 61.023438 -0.625 55.390625 -0.71875 C 49.753906 -0.820312 44.410156 -0.875 39.359375 -0.875 C 34.492188 -0.875 29.582031 -0.820312 24.625 -0.71875 C 19.675781 -0.625 15.550781 -0.382812 12.25 0 L 12.25 -5.828125 C 18.851562 -6.210938 23.851562 -7.234375 27.25 -8.890625 C 30.65625 -10.546875 32.941406 -13.363281 34.109375 -17.34375 C 35.273438 -21.332031 35.859375 -26.820312 35.859375 -33.8125 L 35.859375 -175.5 C 35.859375 -182.6875 35.273438 -187.976562 34.109375 -191.375 C 32.941406 -194.78125 30.65625 -197.113281 27.25 -198.375 C 23.851562 -199.632812 18.851562 -200.363281 12.25 -200.5625 L 12.25 -206.390625 C 15.550781 -206.191406 19.675781 -205.992188 24.625 -205.796875 C 29.582031 -205.609375 34.492188 -205.515625 39.359375 -205.515625 C 43.628906 -205.515625 47.707031 -205.609375 51.59375 -205.796875 C 55.476562 -205.992188 58.976562 -206.191406 62.09375 -206.390625 L 165 -47.8125 L 165 -172.578125 C 165 -179.765625 164.363281 -185.300781 163.09375 -189.1875 C 161.832031 -193.082031 159.304688 -195.898438 155.515625 -197.640625 C 151.734375 -199.390625 146.050781 -200.363281 138.46875 -200.5625 L 138.46875 -206.390625 C 141.96875 -206.191406 146.582031 -205.992188 152.3125 -205.796875 C 158.050781 -205.609375 163.347656 -205.515625 168.203125 -205.515625 C 173.253906 -205.515625 178.257812 -205.609375 183.21875 -205.796875 C 188.175781 -205.992188 192.207031 -206.191406 195.3125 -206.390625 Z M 195.3125 -206.390625 "/></g></g></g><g fill="#cdab63" fill-opacity="1"><g transform="translate(1281.178081, 779.022406)"><g><path d="M 172.578125 -206.390625 C 171.796875 -199.003906 171.257812 -191.863281 170.96875 -184.96875 C 170.675781 -178.070312 170.53125 -172.773438 170.53125 -169.078125 C 170.53125 -164.410156 170.628906 -160.035156 170.828125 -155.953125 C 171.023438 -151.878906 171.21875 -148.285156 171.40625 -145.171875 L 164.703125 -145.171875 C 163.347656 -158.773438 161.503906 -169.507812 159.171875 -177.375 C 156.835938 -185.25 152.753906 -190.9375 146.921875 -194.4375 C 141.085938 -197.9375 132.050781 -199.6875 119.8125 -199.6875 L 104.078125 -199.6875 L 104.078125 -33.8125 C 104.078125 -26.039062 104.800781 -20.210938 106.25 -16.328125 C 107.707031 -12.441406 110.570312 -9.816406 114.84375 -8.453125 C 119.125 -7.085938 125.347656 -6.210938 133.515625 -5.828125 L 133.515625 0 C 128.460938 -0.382812 122.046875 -0.625 114.265625 -0.71875 C 106.492188 -0.820312 98.625 -0.875 90.65625 -0.875 C 81.914062 -0.875 73.707031 -0.820312 66.03125 -0.71875 C 58.351562 -0.625 52.179688 -0.382812 47.515625 0 L 47.515625 -5.828125 C 55.679688 -6.210938 61.898438 -7.085938 66.171875 -8.453125 C 70.453125 -9.816406 73.316406 -12.441406 74.765625 -16.328125 C 76.222656 -20.210938 76.953125 -26.039062 76.953125 -33.8125 L 76.953125 -199.6875 L 61.21875 -199.6875 C 49.164062 -199.6875 40.175781 -197.9375 34.25 -194.4375 C 28.320312 -190.9375 24.191406 -185.25 21.859375 -177.375 C 19.523438 -169.507812 17.679688 -158.773438 16.328125 -145.171875 L 9.625 -145.171875 C 10.007812 -148.285156 10.25 -151.878906 10.34375 -155.953125 C 10.445312 -160.035156 10.5 -164.410156 10.5 -169.078125 C 10.5 -172.773438 10.351562 -178.070312 10.0625 -184.96875 C 9.769531 -191.863281 9.234375 -199.003906 8.453125 -206.390625 C 16.617188 -206.191406 25.507812 -205.992188 35.125 -205.796875 C 44.75 -205.609375 54.414062 -205.515625 64.125 -205.515625 C 73.84375 -205.515625 82.6875 -205.515625 90.65625 -205.515625 C 98.625 -205.515625 107.414062 -205.515625 117.03125 -205.515625 C 126.65625 -205.515625 136.328125 -205.609375 146.046875 -205.796875 C 155.765625 -205.992188 164.609375 -206.191406 172.578125 -206.390625 Z M 172.578125 -206.390625 "/></g></g></g><g fill="#cdab63" fill-opacity="1"><g transform="translate(1496.026075, 779.022406)"><g><path d="M 108.15625 -210.46875 C 126.613281 -210.46875 142.789062 -206.289062 156.6875 -197.9375 C 170.582031 -189.582031 181.367188 -177.582031 189.046875 -161.9375 C 196.722656 -146.289062 200.5625 -127.296875 200.5625 -104.953125 C 200.5625 -83.179688 196.625 -64.132812 188.75 -47.8125 C 180.882812 -31.488281 169.953125 -18.757812 155.953125 -9.625 C 141.960938 -0.488281 125.929688 4.078125 107.859375 4.078125 C 89.398438 4.078125 73.222656 -0.0976562 59.328125 -8.453125 C 45.429688 -16.804688 34.644531 -28.851562 26.96875 -44.59375 C 19.289062 -60.34375 15.453125 -79.296875 15.453125 -101.453125 C 15.453125 -123.210938 19.4375 -142.253906 27.40625 -158.578125 C 35.375 -174.910156 46.304688 -187.640625 60.203125 -196.765625 C 74.097656 -205.898438 90.082031 -210.46875 108.15625 -210.46875 Z M 106.984375 -205.234375 C 94.347656 -205.234375 83.363281 -200.859375 74.03125 -192.109375 C 64.707031 -183.359375 57.472656 -171.304688 52.328125 -155.953125 C 47.179688 -140.609375 44.609375 -122.828125 44.609375 -102.609375 C 44.609375 -82.015625 47.472656 -64.085938 53.203125 -48.828125 C 58.929688 -33.566406 66.703125 -21.804688 76.515625 -13.546875 C 86.335938 -5.296875 97.175781 -1.171875 109.03125 -1.171875 C 121.65625 -1.171875 132.628906 -5.539062 141.953125 -14.28125 C 151.285156 -23.03125 158.523438 -35.128906 163.671875 -50.578125 C 168.828125 -66.023438 171.40625 -83.757812 171.40625 -103.78125 C 171.40625 -124.570312 168.539062 -142.546875 162.8125 -157.703125 C 157.082031 -172.867188 149.359375 -184.582031 139.640625 -192.84375 C 129.921875 -201.101562 119.035156 -205.234375 106.984375 -205.234375 Z M 106.984375 -205.234375 "/></g></g></g><g fill="#cdab63" fill-opacity="1"><g transform="translate(1745.855777, 779.022406)"><g><path d="M 74.625 -209.59375 C 84.34375 -209.59375 91.726562 -208.472656 96.78125 -206.234375 C 101.832031 -204.003906 106.300781 -201.53125 110.1875 -198.8125 C 112.519531 -197.445312 114.414062 -196.425781 115.875 -195.75 C 117.332031 -195.070312 118.742188 -194.734375 120.109375 -194.734375 C 122.046875 -194.734375 123.453125 -195.800781 124.328125 -197.9375 C 125.203125 -200.070312 125.929688 -203.28125 126.515625 -207.5625 L 133.21875 -207.5625 C 133.03125 -204.257812 132.789062 -200.320312 132.5 -195.75 C 132.207031 -191.1875 132.007812 -185.160156 131.90625 -177.671875 C 131.8125 -170.191406 131.765625 -160.332031 131.765625 -148.09375 L 125.0625 -148.09375 C 124.476562 -157.414062 122.4375 -166.351562 118.9375 -174.90625 C 115.4375 -183.457031 110.332031 -190.453125 103.625 -195.890625 C 96.925781 -201.335938 88.132812 -204.0625 77.25 -204.0625 C 66.945312 -204.0625 58.441406 -200.953125 51.734375 -194.734375 C 45.035156 -188.515625 41.6875 -180.351562 41.6875 -170.25 C 41.6875 -161.5 43.921875 -154.160156 48.390625 -148.234375 C 52.859375 -142.304688 58.832031 -136.960938 66.3125 -132.203125 C 73.800781 -127.441406 81.914062 -122.335938 90.65625 -116.890625 C 100.757812 -110.671875 109.75 -104.5 117.625 -98.375 C 125.5 -92.257812 131.71875 -85.507812 136.28125 -78.125 C 140.851562 -70.738281 143.140625 -61.800781 143.140625 -51.3125 C 143.140625 -38.875 140.316406 -28.570312 134.671875 -20.40625 C 129.035156 -12.238281 121.550781 -6.113281 112.21875 -2.03125 C 102.894531 2.039062 92.597656 4.078125 81.328125 4.078125 C 71.023438 4.078125 62.863281 2.910156 56.84375 0.578125 C 50.820312 -1.753906 45.671875 -4.179688 41.390625 -6.703125 C 37.117188 -9.421875 33.816406 -10.78125 31.484375 -10.78125 C 29.535156 -10.78125 28.125 -9.710938 27.25 -7.578125 C 26.375 -5.441406 25.648438 -2.234375 25.078125 2.046875 L 18.359375 2.046875 C 18.753906 -2.035156 19 -6.847656 19.09375 -12.390625 C 19.1875 -17.929688 19.28125 -25.171875 19.375 -34.109375 C 19.476562 -43.046875 19.53125 -54.316406 19.53125 -67.921875 L 26.234375 -67.921875 C 27.015625 -56.265625 29.203125 -45.378906 32.796875 -35.265625 C 36.390625 -25.160156 41.925781 -17.046875 49.40625 -10.921875 C 56.894531 -4.804688 66.859375 -1.75 79.296875 -1.75 C 85.703125 -1.75 91.769531 -3.0625 97.5 -5.6875 C 103.238281 -8.3125 107.953125 -12.488281 111.640625 -18.21875 C 115.335938 -23.945312 117.1875 -31.378906 117.1875 -40.515625 C 117.1875 -48.484375 115.289062 -55.429688 111.5 -61.359375 C 107.707031 -67.285156 102.410156 -72.820312 95.609375 -77.96875 C 88.816406 -83.125 80.851562 -88.425781 71.71875 -93.875 C 62.582031 -99.507812 54.03125 -105.238281 46.0625 -111.0625 C 38.09375 -116.894531 31.726562 -123.648438 26.96875 -131.328125 C 22.207031 -139.003906 19.828125 -148.285156 19.828125 -159.171875 C 19.828125 -170.628906 22.398438 -180.097656 27.546875 -187.578125 C 32.691406 -195.066406 39.441406 -200.609375 47.796875 -204.203125 C 56.160156 -207.796875 65.101562 -209.59375 74.625 -209.59375 Z M 74.625 -209.59375 "/></g></g></g></svg>